<svg width="512" height="512" viewBox="0 0 512 512" fill="none" xmlns="http://www.w3.org/2000/svg" role="img" aria-labelledby="title desc">
  <title id="title">Cursor Go Implements Indicator logo</title>
  <desc id="desc">A Go-themed blue gradient badge with interface nodes, implementation links, and a check indicator.</desc>
  <defs>
    <linearGradient id="bg" x1="64" y1="64" x2="448" y2="448" gradientUnits="userSpaceOnUse">
      <stop stop-color="#38BDF8"/>
      <stop offset="1" stop-color="#0EA5E9"/>
    </linearGradient>
    <linearGradient id="link" x1="132" y1="190" x2="380" y2="304" gradientUnits="userSpaceOnUse">
      <stop stop-color="#0F172A" stop-opacity="0.35"/>
      <stop offset="1" stop-color="#0F172A" stop-opacity="0.65"/>
    </linearGradient>
    <filter id="shadow" x="46" y="54" width="420" height="420" filterUnits="userSpaceOnUse" color-interpolation-filters="sRGB">
      <feFlood flood-opacity="0" result="BackgroundImageFix"/>
      <feColorMatrix in="SourceAlpha" type="matrix" values="0 0 0 0 0 0 0 0 0 0 0 0 0 0 0 0 0 0 127 0" result="hardAlpha"/>
      <feOffset dy="8"/>
      <feGaussianBlur stdDeviation="9"/>
      <feComposite in2="hardAlpha" operator="out"/>
      <feColorMatrix type="matrix" values="0 0 0 0 0.043 0 0 0 0 0.224 0 0 0 0 0.353 0 0 0 0.24 0"/>
      <feBlend mode="normal" in2="BackgroundImageFix" result="effect1_dropShadow_1_1"/>
      <feBlend mode="normal" in="SourceGraphic" in2="effect1_dropShadow_1_1" result="shape"/>
    </filter>
  </defs>

  <g filter="url(#shadow)">
    <rect x="64" y="64" width="384" height="384" rx="92" fill="url(#bg)"/>
    <rect x="86" y="86" width="340" height="340" rx="74" fill="white" fill-opacity="0.12"/>
  </g>

  <!-- interface method node -->
  <circle cx="150" cy="212" r="28" fill="white"/>
  <circle cx="150" cy="212" r="12" fill="#0284C7"/>

  <!-- implementation method nodes -->
  <circle cx="356" cy="170" r="24" fill="white"/>
  <circle cx="356" cy="170" r="10" fill="#0369A1"/>
  <circle cx="380" cy="262" r="24" fill="white"/>
  <circle cx="380" cy="262" r="10" fill="#0369A1"/>
  <circle cx="334" cy="342" r="24" fill="white"/>
  <circle cx="334" cy="342" r="10" fill="#0369A1"/>

  <!-- implementation links -->
  <path d="M175 206L332 175" stroke="url(#link)" stroke-width="12" stroke-linecap="round"/>
  <path d="M176 219L355 258" stroke="url(#link)" stroke-width="12" stroke-linecap="round"/>
  <path d="M170 232L310 331" stroke="url(#link)" stroke-width="12" stroke-linecap="round"/>

  <!-- Go-inspired speed lines -->
  <rect x="122" y="122" width="108" height="12" rx="6" fill="white" fill-opacity="0.65"/>
  <rect x="102" y="146" width="148" height="10" rx="5" fill="white" fill-opacity="0.5"/>

  <!-- clickable success indicator -->
  <circle cx="372" cy="366" r="54" fill="#22C55E"/>
  <path d="M346 366L365 385L400 350" stroke="white" stroke-width="14" stroke-linecap="round" stroke-linejoin="round"/>
</svg>
